<svg width="33" height="32" viewBox="0 0 33 32" fill="none" xmlns="http://www.w3.org/2000/svg">
<path d="M27.5 15V14.5C27.4963 11.8815 26.6005 9.34231 24.9603 7.30117C23.32 5.26002 21.0331 3.83871 18.4768 3.27154C18.4895 3.18153 18.4973 3.09087 18.5 3C18.5 2.33696 18.2366 1.70107 17.7678 1.23223C17.2989 0.763392 16.663 0.5 16 0.5C15.337 0.5 14.7011 0.763392 14.2322 1.23223C13.7634 1.70107 13.5 2.33696 13.5 3C13.5028 3.09087 13.5105 3.18153 13.5233 3.27154C10.9669 3.83871 8.68004 5.26002 7.03976 7.30117C5.39948 9.34231 4.50367 11.8815 4.5 14.5V15C4.10231 15.0004 3.72103 15.1586 3.43982 15.4398C3.15861 15.721 3.00043 16.1023 3 16.5V17C3.00043 17.3977 3.15861 17.779 3.43982 18.0602C3.72103 18.3414 4.10231 18.4996 4.5 18.5H7.6135C7.61251 18.5665 7.618 18.6329 7.62989 18.6982L8.43897 22.7439C7.9027 23.0811 7.44979 23.5354 7.11427 24.0728C6.7131 24.7227 6.50044 25.4713 6.5 26.2351V26.3816L5.9035 27.5708L5.59817 27.5098C5.52563 27.4953 5.45077 27.497 5.37899 27.5149C5.3072 27.5328 5.24029 27.5664 5.18307 27.6133C5.12585 27.6602 5.07975 27.7192 5.04809 27.7861C5.01643 27.853 5.00001 27.926 5 28V31.5C5 31.6326 5.05268 31.7598 5.14645 31.8536C5.24022 31.9473 5.36739 32 5.5 32H15.5C15.6326 32 15.7598 31.9473 15.8536 31.8536C15.9473 31.7598 16 31.6326 16 31.5V30C15.9992 29.933 15.9847 29.8668 15.9575 29.8056C15.9302 29.7443 15.8908 29.6893 15.8415 29.6438L20.2942 26.4043C20.3427 26.363 20.3863 26.3162 20.4241 26.2649L25.2771 18.5H27.5C27.8977 18.4996 28.279 18.3414 28.5602 18.0602C28.8414 17.779 28.9996 17.3977 29 17V16.5C28.9996 16.1023 28.8414 15.721 28.5602 15.4398C28.279 15.1586 27.8977 15.0004 27.5 15ZM14.5 3C14.5 2.60218 14.658 2.22064 14.9393 1.93934C15.2206 1.65804 15.6022 1.5 16 1.5C16.3978 1.5 16.7794 1.65804 17.0607 1.93934C17.342 2.22064 17.5 2.60218 17.5 3C17.5 3.03418 17.4938 3.0665 17.4916 3.09995C16.5017 2.96669 15.4983 2.96669 14.5084 3.09995C14.5062 3.0665 14.5 3.03418 14.5 3ZM5.5 14.5C5.5 14.3312 5.51743 14.1668 5.52533 14H21.5C21.6326 14 21.7598 13.9473 21.8536 13.8536C21.9473 13.7598 22 13.6326 22 13.5C22 13.3674 21.9473 13.2402 21.8536 13.1464C21.7598 13.0527 21.6326 13 21.5 13H5.61981C5.97741 10.5018 7.22396 8.21644 9.13068 6.56322C11.0374 4.91001 13.4764 3.99988 16 3.99988C18.5236 3.99988 20.9626 4.91001 22.8693 6.56322C24.7761 8.21644 26.0226 10.5018 26.3802 13H23.5C23.3674 13 23.2402 13.0527 23.1465 13.1464C23.0527 13.2402 23 13.3674 23 13.5C23 13.6326 23.0527 13.7598 23.1465 13.8536C23.2402 13.9473 23.3674 14 23.5 14H26.4747C26.4826 14.1668 26.5 14.3312 26.5 14.5V15H5.5V14.5ZM7.447 26.7241C7.48189 26.6546 7.50004 26.5778 7.5 26.5V26.2351C7.50037 25.6576 7.66104 25.0915 7.96411 24.5999C8.27215 24.1075 8.70863 23.7085 9.22657 23.4458C9.32385 23.3963 9.40228 23.3164 9.44989 23.2182C9.4975 23.12 9.51167 23.0089 9.49024 22.9019L8.61011 18.5H9.44995C9.91221 18.5001 10.3601 18.6605 10.7174 18.9537C11.0748 19.247 11.3194 19.6551 11.4097 20.1084L11.9355 22.7271C12.0111 23.0867 12.2133 23.4073 12.5054 23.6304L13.9314 24.6973C14.1915 24.8941 14.5088 25.0004 14.835 25H16.315C16.6175 24.9997 16.9129 24.9078 17.1622 24.7364C17.4115 24.565 17.6031 24.3222 17.7117 24.0398L19.5169 19.3489C19.6133 19.0998 19.7825 18.8856 20.0025 18.7342C20.2225 18.5828 20.483 18.5012 20.75 18.5H21.3596L19.5589 25.7028L14.6003 29.3102L6.92035 27.7742L7.447 26.7241ZM11.6797 18.5H18.8512C18.7422 18.6518 18.6523 18.8165 18.5835 18.9902L16.7771 23.6838C16.7411 23.7771 16.6777 23.8573 16.5951 23.9137C16.5126 23.9702 16.4149 24.0003 16.3149 24H14.8349C14.7265 24.001 14.6208 23.9657 14.5347 23.8997L13.1098 22.8337C13.0105 22.7578 12.9415 22.6489 12.9153 22.5266L12.3906 19.9136C12.2859 19.3867 12.0402 18.8982 11.6797 18.5ZM15 31H6V28.6099L15 30.4099V31ZM21.2522 23.0531L22.3904 18.5H24.0979L21.2522 23.0531ZM28 17C27.9998 17.1326 27.9471 17.2596 27.8534 17.3534C27.7596 17.4471 27.6326 17.4998 27.5 17.5H4.5C4.36745 17.4998 4.24037 17.4471 4.14664 17.3534C4.05291 17.2596 4.00017 17.1326 4 17V16.5C4.00017 16.3674 4.05291 16.2404 4.14664 16.1466C4.24037 16.0529 4.36745 16.0002 4.5 16H27.5C27.6326 16.0002 27.7596 16.0529 27.8534 16.1466C27.9471 16.2404 27.9998 16.3674 28 16.5V17Z" fill="#C1270D"/>
<g clip-path="url(#clip0_766_3212)">
<path d="M30.4375 0.267456C30.1091 0.272565 29.7878 0.364247 29.5062 0.533244C29.2245 0.70224 28.9924 0.942568 28.8334 1.22996C28.6743 0.942568 28.4422 0.70224 28.1606 0.533244C27.8789 0.364247 27.5576 0.272565 27.2292 0.267456C26.7057 0.290203 26.2124 0.519238 25.8572 0.904524C25.5019 1.28981 25.3136 1.80003 25.3334 2.32371C25.3334 4.29975 28.5289 6.58204 28.6648 6.67887L28.8334 6.79816L29.002 6.67887C29.1379 6.58262 32.3334 4.29975 32.3334 2.32371C32.3531 1.80003 32.1648 1.28981 31.8096 0.904524C31.4544 0.519238 30.9611 0.290203 30.4375 0.267456ZM28.8334 6.08008C27.8846 5.37133 25.9167 3.63008 25.9167 2.32371C25.8968 1.95466 26.0236 1.59271 26.2694 1.31679C26.5153 1.04086 26.8603 0.87335 27.2292 0.850789C27.5981 0.87335 27.9431 1.04086 28.189 1.31679C28.4349 1.59271 28.5617 1.95466 28.5417 2.32371H29.125C29.1051 1.95466 29.2319 1.59271 29.4778 1.31679C29.7237 1.04086 30.0687 0.87335 30.4375 0.850789C30.8064 0.87335 31.1514 1.04086 31.3973 1.31679C31.6432 1.59271 31.77 1.95466 31.75 2.32371C31.75 3.63066 29.7822 5.37133 28.8334 6.08008Z" fill="#C1270D"/>
</g>
<defs>
<clipPath id="clip0_766_3212">
<rect width="7" height="7" fill="white" transform="translate(25.3333)"/>
</clipPath>
</defs>
</svg>
