<svg width="32" height="32" viewBox="0 0 32 32" fill="none" xmlns="http://www.w3.org/2000/svg">
<path d="M9.25339 29H1.06667V4.99996H21.3333V15.04C21.3333 15.1726 21.3895 15.2998 21.4895 15.3936C21.5896 15.4873 21.7252 15.54 21.8667 15.54C22.0081 15.54 22.1438 15.4873 22.2438 15.3936C22.3438 15.2998 22.4 15.1726 22.4 15.04V4.49996C22.4 4.36735 22.3438 4.24018 22.2438 4.14641C22.1438 4.05264 22.0081 3.99996 21.8667 3.99996H20.2667V0.499957C20.2667 0.425088 20.2488 0.351173 20.2142 0.283669C20.1797 0.216166 20.1294 0.156798 20.0671 0.109951C20.0048 0.0631036 19.9321 0.0299731 19.8543 0.0130059C19.7765 -0.00396134 19.6957 -0.00433189 19.6177 0.0119216L0.417707 4.01193C0.302157 4.04172 0.199579 4.10492 0.124579 4.19255C0.0495802 4.28018 0.0059843 4.38775 0 4.49996V29.5C0 29.6326 0.0561903 29.7598 0.15621 29.8536C0.256229 29.9473 0.391885 30 0.533333 30H9.25339C9.39483 30 9.53049 29.9473 9.63051 29.8536C9.73053 29.7598 9.78672 29.6326 9.78672 29.5C9.78672 29.3674 9.73053 29.2402 9.63051 29.1464C9.53049 29.0527 9.39483 29 9.25339 29ZM19.2 3.99996H5.3916L19.2 1.12325V3.99996Z" fill="#424242"/>
<path d="M19.7334 15.8401C19.8748 15.8401 20.0105 15.7874 20.1105 15.6937C20.2105 15.5999 20.2667 15.4727 20.2667 15.3401V9C20.2667 8.8674 20.2105 8.74022 20.1105 8.64645C20.0105 8.55268 19.8748 8.5 19.7334 8.5C19.1678 8.4994 18.6255 8.28849 18.2256 7.91355C17.8256 7.5386 17.6007 7.03025 17.6 6.5C17.6 6.36739 17.5438 6.24022 17.4438 6.14645C17.3438 6.05268 17.2081 6 17.0667 6H5.33336C5.19191 6 5.05626 6.05268 4.95624 6.14645C4.85622 6.24022 4.80003 6.36739 4.80003 6.5C4.79938 7.03025 4.57441 7.5386 4.17448 7.91355C3.77454 8.28849 3.23229 8.4994 2.6667 8.5C2.52525 8.5 2.38959 8.55268 2.28957 8.64645C2.18955 8.74022 2.13336 8.8674 2.13336 9V25C2.13336 25.1326 2.18955 25.2598 2.28957 25.3536C2.38959 25.4473 2.52525 25.5 2.6667 25.5C3.23229 25.5006 3.77454 25.7115 4.17448 26.0865C4.57441 26.4614 4.79938 26.9698 4.80003 27.5C4.80003 27.6326 4.85622 27.7598 4.95624 27.8536C5.05626 27.9474 5.19191 28 5.33336 28H10.6667C10.8081 28 10.9438 27.9474 11.0438 27.8536C11.1438 27.7598 11.2 27.6326 11.2 27.5C11.2 27.3674 11.1438 27.2402 11.0438 27.1465C10.9438 27.0527 10.8081 27 10.6667 27H5.82216C5.71036 26.3862 5.39807 25.82 4.92838 25.3797C4.4587 24.9394 3.85479 24.6466 3.20003 24.5418V9.45826C3.85479 9.35345 4.4587 9.06067 4.92838 8.62033C5.39807 8.18 5.71036 7.61384 5.82216 7H16.5779C16.6897 7.61384 17.002 8.18 17.4717 8.62033C17.9414 9.06067 18.5453 9.35345 19.2 9.45826V15.3401C19.2 15.4727 19.2562 15.5999 19.3562 15.6937C19.4563 15.7874 19.5919 15.8401 19.7334 15.8401Z" fill="#424242"/>
<path d="M30.4 29V27.5C30.3964 25.5954 29.7113 23.747 28.4542 22.2508C27.1971 20.7545 25.4409 19.697 23.4667 19.2475V18.5C23.4667 17.9696 23.2419 17.4609 22.8418 17.0858C22.4418 16.7107 21.8991 16.5 21.3334 16.5C20.7676 16.5 20.2249 16.7107 19.8249 17.0858C19.4248 17.4609 19.2 17.9696 19.2 18.5V19.2475C17.2258 19.697 15.4696 20.7545 14.2125 22.2508C12.9555 23.747 12.2703 25.5954 12.2667 27.5V29C11.8423 29 11.4354 29.1581 11.1353 29.4394C10.8353 29.7207 10.6667 30.1022 10.6667 30.5C10.6667 30.8978 10.8353 31.2794 11.1353 31.5607C11.4354 31.842 11.8423 32 12.2667 32H30.4C30.8244 32 31.2313 31.842 31.5314 31.5607C31.8314 31.2794 32 30.8978 32 30.5C32 30.1022 31.8314 29.7207 31.5314 29.4394C31.2313 29.1581 30.8244 29 30.4 29ZM20.2667 18.5C20.2667 18.2348 20.3791 17.9804 20.5791 17.7929C20.7791 17.6054 21.0505 17.5 21.3334 17.5C21.6163 17.5 21.8876 17.6054 22.0876 17.7929C22.2876 17.9804 22.4 18.2348 22.4 18.5V19.0642C21.6918 18.9786 20.9749 18.9786 20.2667 19.0642V18.5ZM13.3334 28H25.6C25.7415 28 25.8771 27.9473 25.9771 27.8536C26.0772 27.7598 26.1334 27.6326 26.1334 27.5C26.1334 27.3674 26.0772 27.2402 25.9771 27.1465C25.8771 27.0527 25.7415 27 25.6 27H13.3604C13.4933 25.1024 14.3911 23.3232 15.8717 22.0233C17.3523 20.7233 19.3049 20 21.3334 20C23.3619 20 25.3144 20.7233 26.795 22.0233C28.2756 23.3232 29.1734 25.1024 29.3063 27H27.7334C27.5919 27 27.4562 27.0527 27.3562 27.1465C27.2562 27.2402 27.2 27.3674 27.2 27.5C27.2 27.6326 27.2562 27.7598 27.3562 27.8536C27.4562 27.9473 27.5919 28 27.7334 28H29.3334V29H13.3334V28ZM30.4 31H12.2667C12.1252 31 11.9896 30.9473 11.8896 30.8536C11.7895 30.7598 11.7334 30.6326 11.7334 30.5C11.7334 30.3674 11.7895 30.2402 11.8896 30.1465C11.9896 30.0527 12.1252 30 12.2667 30H30.4C30.5415 30 30.6771 30.0527 30.7771 30.1465C30.8772 30.2402 30.9334 30.3674 30.9334 30.5C30.9334 30.6326 30.8772 30.7598 30.7771 30.8536C30.6771 30.9473 30.5415 31 30.4 31Z" fill="#424242"/>
<path d="M12.2667 8C12.1252 8 11.9896 8.05268 11.8895 8.14645C11.7895 8.24021 11.7333 8.36739 11.7333 8.5V10C11.7348 10.4422 11.8926 10.8714 12.1821 11.2205C12.4717 11.5696 12.8766 11.8188 13.3333 11.929V14.5C13.3333 14.6326 13.3895 14.7598 13.4895 14.8536C13.5896 14.9473 13.7252 15 13.8667 15C14.0081 15 14.1438 14.9473 14.2438 14.8536C14.3438 14.7598 14.4 14.6326 14.4 14.5V11.929C14.8568 11.8188 15.2617 11.5696 15.5512 11.2205C15.8407 10.8714 15.9986 10.4422 16 10V8.5C16 8.36739 15.9438 8.24021 15.8438 8.14645C15.7438 8.05268 15.6081 8 15.4667 8C15.3252 8 15.1896 8.05268 15.0895 8.14645C14.9895 8.24021 14.9333 8.36739 14.9333 8.5V10C14.9328 10.1747 14.8832 10.3463 14.7896 10.4974C14.696 10.6485 14.5616 10.7739 14.4 10.8609V8.5C14.4 8.36739 14.3438 8.24021 14.2438 8.14645C14.1438 8.05268 14.0081 8 13.8667 8C13.7252 8 13.5896 8.05268 13.4895 8.14645C13.3895 8.24021 13.3333 8.36739 13.3333 8.5V10.8609C13.1717 10.7739 13.0374 10.6485 12.9438 10.4974C12.8502 10.3463 12.8006 10.1747 12.8 10V8.5C12.8 8.36739 12.7438 8.24021 12.6438 8.14645C12.5438 8.05268 12.4081 8 12.2667 8Z" fill="#424242"/>
<path d="M8.53336 15C8.67481 15 8.81046 14.9473 8.91048 14.8536C9.0105 14.7598 9.06669 14.6326 9.06669 14.5V12.429C9.52347 12.3188 9.92834 12.0696 10.2179 11.7205C10.5074 11.3715 10.6653 10.9422 10.6667 10.5C10.6667 9.50464 9.81591 8 8.53336 8C7.2508 8 6.40002 9.50464 6.40002 10.5C6.40145 10.9422 6.5593 11.3715 6.84883 11.7205C7.13837 12.0696 7.54324 12.3188 8.00002 12.429V14.5C8.00002 14.6326 8.05621 14.7598 8.15623 14.8536C8.25625 14.9473 8.39191 15 8.53336 15ZM7.46669 10.5C7.46669 9.88037 8.01825 9 8.53336 9C9.04846 9 9.60002 9.88037 9.60002 10.5C9.60002 10.7652 9.48764 11.0196 9.2876 11.2071C9.08757 11.3946 8.81626 11.5 8.53336 11.5C8.25046 11.5 7.97915 11.3946 7.77911 11.2071C7.57907 11.0196 7.46669 10.7652 7.46669 10.5Z" fill="#424242"/>
<path d="M6.93331 16.5H5.86665C5.7252 16.5 5.58954 16.5527 5.48952 16.6464C5.3895 16.7402 5.33331 16.8674 5.33331 17C5.33331 17.1326 5.3895 17.2598 5.48952 17.3536C5.58954 17.4473 5.7252 17.5 5.86665 17.5H6.93331C7.07476 17.5 7.21042 17.4473 7.31044 17.3536C7.41046 17.2598 7.46665 17.1326 7.46665 17C7.46665 16.8674 7.41046 16.7402 7.31044 16.6464C7.21042 16.5527 7.07476 16.5 6.93331 16.5Z" fill="#424242"/>
<path d="M17.0667 17C17.0667 16.8674 17.0105 16.7402 16.9104 16.6464C16.8104 16.5527 16.6748 16.5 16.5333 16.5H9.06666C8.92521 16.5 8.78955 16.5527 8.68953 16.6464C8.58952 16.7402 8.53333 16.8674 8.53333 17C8.53333 17.1326 8.58952 17.2598 8.68953 17.3536C8.78955 17.4473 8.92521 17.5 9.06666 17.5H16.5333C16.6748 17.5 16.8104 17.4473 16.9104 17.3536C17.0105 17.2598 17.0667 17.1326 17.0667 17Z" fill="#424242"/>
<path d="M6.93331 19H5.86665C5.7252 19 5.58954 19.0527 5.48952 19.1464C5.3895 19.2402 5.33331 19.3674 5.33331 19.5C5.33331 19.6326 5.3895 19.7598 5.48952 19.8536C5.58954 19.9473 5.7252 20 5.86665 20H6.93331C7.07476 20 7.21042 19.9473 7.31044 19.8536C7.41046 19.7598 7.46665 19.6326 7.46665 19.5C7.46665 19.3674 7.41046 19.2402 7.31044 19.1464C7.21042 19.0527 7.07476 19 6.93331 19Z" fill="#424242"/>
<path d="M14.9333 19.5C14.9333 19.3674 14.8771 19.2402 14.7771 19.1464C14.6771 19.0527 14.5414 19 14.4 19H9.06666C8.92521 19 8.78955 19.0527 8.68953 19.1464C8.58952 19.2402 8.53333 19.3674 8.53333 19.5C8.53333 19.6326 8.58952 19.7598 8.68953 19.8536C8.78955 19.9473 8.92521 20 9.06666 20H14.4C14.5414 20 14.6771 19.9473 14.7771 19.8536C14.8771 19.7598 14.9333 19.6326 14.9333 19.5Z" fill="#424242"/>
<path d="M6.93331 21.5H5.86665C5.7252 21.5 5.58954 21.5527 5.48952 21.6464C5.3895 21.7402 5.33331 21.8674 5.33331 22C5.33331 22.1326 5.3895 22.2598 5.48952 22.3536C5.58954 22.4473 5.7252 22.5 5.86665 22.5H6.93331C7.07476 22.5 7.21042 22.4473 7.31044 22.3536C7.41046 22.2598 7.46665 22.1326 7.46665 22C7.46665 21.8674 7.41046 21.7402 7.31044 21.6464C7.21042 21.5527 7.07476 21.5 6.93331 21.5Z" fill="#424242"/>
<path d="M12.8 22C12.8 21.8674 12.7438 21.7402 12.6438 21.6464C12.5438 21.5527 12.4081 21.5 12.2667 21.5H9.06666C8.92521 21.5 8.78955 21.5527 8.68953 21.6464C8.58952 21.7402 8.53333 21.8674 8.53333 22C8.53333 22.1326 8.58952 22.2598 8.68953 22.3536C8.78955 22.4473 8.92521 22.5 9.06666 22.5H12.2667C12.4081 22.5 12.5438 22.4473 12.6438 22.3536C12.7438 22.2598 12.8 22.1326 12.8 22Z" fill="#424242"/>
<path d="M6.93331 24H5.86665C5.7252 24 5.58954 24.0527 5.48952 24.1464C5.3895 24.2402 5.33331 24.3674 5.33331 24.5C5.33331 24.6326 5.3895 24.7598 5.48952 24.8536C5.58954 24.9473 5.7252 25 5.86665 25H6.93331C7.07476 25 7.21042 24.9473 7.31044 24.8536C7.41046 24.7598 7.46665 24.6326 7.46665 24.5C7.46665 24.3674 7.41046 24.2402 7.31044 24.1464C7.21042 24.0527 7.07476 24 6.93331 24Z" fill="#424242"/>
<path d="M9.06666 24C8.92521 24 8.78955 24.0527 8.68953 24.1464C8.58952 24.2402 8.53333 24.3674 8.53333 24.5C8.53333 24.6326 8.58952 24.7598 8.68953 24.8536C8.78955 24.9473 8.92521 25 9.06666 25H10.1333C10.2748 25 10.4104 24.9473 10.5104 24.8536C10.6105 24.7598 10.6667 24.6326 10.6667 24.5C10.6667 24.3674 10.6105 24.2402 10.5104 24.1464C10.4104 24.0527 10.2748 24 10.1333 24H9.06666Z" fill="#424242"/>
<path d="M2.6667 7C2.96125 7 3.20003 6.77614 3.20003 6.5C3.20003 6.22386 2.96125 6 2.6667 6C2.37214 6 2.13336 6.22386 2.13336 6.5C2.13336 6.77614 2.37214 7 2.6667 7Z" fill="#424242"/>
<path d="M19.7333 7C20.0279 7 20.2667 6.77614 20.2667 6.5C20.2667 6.22386 20.0279 6 19.7333 6C19.4388 6 19.2 6.22386 19.2 6.5C19.2 6.77614 19.4388 7 19.7333 7Z" fill="#424242"/>
<path d="M2.6667 28C2.96125 28 3.20003 27.7761 3.20003 27.5C3.20003 27.2239 2.96125 27 2.6667 27C2.37214 27 2.13336 27.2239 2.13336 27.5C2.13336 27.7761 2.37214 28 2.6667 28Z" fill="#424242"/>
</svg>
