<svg width="101" height="100" viewBox="0 0 101 100" fill="none" xmlns="http://www.w3.org/2000/svg">
<ellipse opacity="0.1" cx="50.5" cy="96.999" rx="50" ry="3" fill="#FA7337"/>
<path fill-rule="evenodd" clip-rule="evenodd" d="M30.4986 19.001C30.4986 17.3441 31.8417 16.001 33.4986 16.001C35.1554 16.001 36.4986 17.3441 36.4986 19.001V21.001H64.4986V19.001C64.4986 17.3441 65.8417 16.001 67.4986 16.001C69.1554 16.001 70.4986 17.3441 70.4986 19.001V21.001H76.4986C80.9168 21.001 84.4986 24.5827 84.4986 29.001V57.1428C91.2832 58.1132 96.4986 63.948 96.4986 71.001C96.4986 78.733 90.2306 85.001 82.4986 85.001C77.3166 85.001 72.7922 82.1856 70.3715 78.001H23.4986C19.6326 78.001 16.4986 74.867 16.4986 71.001V29.001C16.4986 24.5827 20.0803 21.001 24.4986 21.001H30.4986V19.001ZM69.4178 76.001C68.8239 74.4482 68.4986 72.7626 68.4986 71.001C68.4986 63.269 74.7666 57.001 82.4986 57.001V34.001H18.4986V71.001C18.4986 73.7624 20.7371 76.001 23.4986 76.001H69.4178ZM28.9986 41.001C27.3417 41.001 25.9986 42.3441 25.9986 44.001V47.001C25.9986 48.6578 27.3417 50.001 28.9986 50.001H31.9986C33.6554 50.001 34.9986 48.6578 34.9986 47.001V44.001C34.9986 42.3441 33.6554 41.001 31.9986 41.001H28.9986ZM27.9986 44.001C27.9986 43.4487 28.4463 43.001 28.9986 43.001H31.9986C32.5508 43.001 32.9986 43.4487 32.9986 44.001V47.001C32.9986 47.5533 32.5508 48.001 31.9986 48.001H28.9986C28.4463 48.001 27.9986 47.5533 27.9986 47.001V44.001ZM52.9986 44.001C52.9986 42.3441 54.3417 41.001 55.9986 41.001H58.9986C60.6554 41.001 61.9986 42.3441 61.9986 44.001V47.001C61.9986 48.6578 60.6554 50.001 58.9986 50.001H55.9986C54.3417 50.001 52.9986 48.6578 52.9986 47.001V44.001ZM55.9986 43.001C55.4463 43.001 54.9986 43.4487 54.9986 44.001V47.001C54.9986 47.5533 55.4463 48.001 55.9986 48.001H58.9986C59.5508 48.001 59.9986 47.5533 59.9986 47.001V44.001C59.9986 43.4487 59.5508 43.001 58.9986 43.001H55.9986ZM68.9986 41.001C67.3417 41.001 65.9986 42.3441 65.9986 44.001V47.001C65.9986 48.6578 67.3417 50.001 68.9986 50.001H71.9986C73.6554 50.001 74.9986 48.6578 74.9986 47.001V44.001C74.9986 42.3441 73.6554 41.001 71.9986 41.001H68.9986ZM67.9986 44.001C67.9986 43.4487 68.4463 43.001 68.9986 43.001H71.9986C72.5508 43.001 72.9986 43.4487 72.9986 44.001V47.001C72.9986 47.5533 72.5508 48.001 71.9986 48.001H68.9986C68.4463 48.001 67.9986 47.5533 67.9986 47.001V44.001ZM55.9986 56.001C54.3417 56.001 52.9986 57.3441 52.9986 59.001V62.001C52.9986 63.6578 54.3417 65.001 55.9986 65.001H58.9986C60.6554 65.001 61.9986 63.6578 61.9986 62.001V59.001C61.9986 57.3441 60.6554 56.001 58.9986 56.001H55.9986ZM41.9986 41.001C40.3417 41.001 38.9986 42.3441 38.9986 44.001V47.001C38.9986 48.6578 40.3417 50.001 41.9986 50.001H44.9986C46.6554 50.001 47.9986 48.6578 47.9986 47.001V44.001C47.9986 42.3441 46.6554 41.001 44.9986 41.001H41.9986ZM38.9986 59.001C38.9986 57.3441 40.3417 56.001 41.9986 56.001H44.9986C46.6554 56.001 47.9986 57.3441 47.9986 59.001V62.001C47.9986 63.6578 46.6554 65.001 44.9986 65.001H41.9986C40.3417 65.001 38.9986 63.6578 38.9986 62.001V59.001ZM41.9986 58.001C41.4463 58.001 40.9986 58.4487 40.9986 59.001V62.001C40.9986 62.5533 41.4463 63.001 41.9986 63.001H44.9986C45.5508 63.001 45.9986 62.5533 45.9986 62.001V59.001C45.9986 58.4487 45.5508 58.001 44.9986 58.001H41.9986ZM70.4986 71.001C70.4986 64.3736 75.8711 59.001 82.4986 59.001C89.126 59.001 94.4986 64.3736 94.4986 71.001C94.4986 77.6284 89.126 83.001 82.4986 83.001C75.8711 83.001 70.4986 77.6284 70.4986 71.001ZM79.9986 64.501C79.9986 63.1203 81.1179 62.001 82.4986 62.001C83.8793 62.001 84.9986 63.1203 84.9986 64.501V70.501C84.9986 71.8817 83.8793 73.001 82.4986 73.001C81.1179 73.001 79.9986 71.8817 79.9986 70.501V64.501ZM82.4986 64.001C82.2224 64.001 81.9986 64.2248 81.9986 64.501V70.501C81.9986 70.7771 82.2224 71.001 82.4986 71.001C82.7747 71.001 82.9986 70.7771 82.9986 70.501V64.501C82.9986 64.2248 82.7747 64.001 82.4986 64.001ZM82.4986 80.001C81.1179 80.001 79.9986 78.8817 79.9986 77.501C79.9986 76.1203 81.1179 75.001 82.4986 75.001C83.8793 75.001 84.9986 76.1203 84.9986 77.501C84.9986 78.8817 83.8793 80.001 82.4986 80.001ZM81.9986 77.501C81.9986 77.7771 82.2224 78.001 82.4986 78.001C82.7747 78.001 82.9986 77.7771 82.9986 77.501C82.9986 77.2248 82.7747 77.001 82.4986 77.001C82.2224 77.001 81.9986 77.2248 81.9986 77.501ZM12.5534 80.2705C14.0085 80.2705 15.188 79.091 15.188 77.6359C15.188 76.1809 14.0085 75.0013 12.5534 75.0013H7.13361C5.67857 75.0013 4.49902 76.1809 4.49902 77.6359C4.49902 79.091 5.67857 80.2705 7.13361 80.2705H12.5534ZM13.188 77.6359C13.188 77.9864 12.9039 78.2705 12.5534 78.2705H7.13361C6.78314 78.2705 6.49902 77.9864 6.49902 77.6359C6.49902 77.2854 6.78314 77.0013 7.13361 77.0013H12.5534C12.9039 77.0013 13.188 77.2854 13.188 77.6359ZM18.2868 91.1309C19.7419 91.1309 20.9214 89.9513 20.9214 88.4963V83.0765C20.9214 81.6214 19.7419 80.4419 18.2868 80.4419C16.8318 80.4419 15.6522 81.6214 15.6522 83.0765L15.6522 88.4963C15.6522 89.9513 16.8318 91.1309 18.2868 91.1309ZM18.9214 88.4963C18.9214 88.8467 18.6373 89.1309 18.2868 89.1309C17.9364 89.1309 17.6522 88.8467 17.6522 88.4963V83.0765C17.6522 82.726 17.9364 82.4419 18.2868 82.4419C18.6373 82.4419 18.9214 82.726 18.9214 83.0765L18.9214 88.4963Z" fill="#FA7337"/>
</svg>
