<svg width="17" height="16" viewBox="0 0 17 16" fill="none" xmlns="http://www.w3.org/2000/svg">
<g clip-path="url(#clip0_845_2919)">
<path d="M16.305 0.195679C16.18 0.0706986 16.0105 0.000488281 15.8337 0.000488281C15.6569 0.000488281 15.4874 0.0706986 15.3623 0.195679L8.50035 7.05768L1.63835 0.195679C1.51333 0.0706986 1.34379 0.000488281 1.16701 0.000488281C0.990236 0.000488281 0.820698 0.0706986 0.695679 0.195679C0.570699 0.320698 0.500488 0.490236 0.500488 0.667013C0.500488 0.843789 0.570699 1.01333 0.695679 1.13835L7.55768 8.00035L0.695679 14.8623C0.570699 14.9874 0.500488 15.1569 0.500488 15.3337C0.500488 15.5105 0.570699 15.68 0.695679 15.805C0.820698 15.93 0.990236 16.0002 1.16701 16.0002C1.34379 16.0002 1.51333 15.93 1.63835 15.805L8.50035 8.94301L15.3623 15.805C15.4874 15.93 15.6569 16.0002 15.8337 16.0002C16.0105 16.0002 16.18 15.93 16.305 15.805C16.43 15.68 16.5002 15.5105 16.5002 15.3337C16.5002 15.1569 16.43 14.9874 16.305 14.8623L9.44301 8.00035L16.305 1.13835C16.43 1.01333 16.5002 0.843789 16.5002 0.667013C16.5002 0.490236 16.43 0.320698 16.305 0.195679Z" fill="#FF0000"/>
</g>
<defs>
<clipPath id="clip0_845_2919">
<rect width="16" height="16" fill="white" transform="translate(0.5)"/>
</clipPath>
</defs>
</svg>
