<svg width="32" height="32" viewBox="0 0 32 32" fill="none" xmlns="http://www.w3.org/2000/svg">
<path d="M16.0271 27.3736C12.9205 27.3736 9.81381 26.8802 6.86714 25.8936C5.74714 25.5069 4.89381 24.7202 4.52048 23.6936C4.13381 22.6669 4.26714 21.5336 4.88048 20.5202L6.41381 17.9736C6.73381 17.4402 7.02714 16.3736 7.02714 15.7469V11.8936C7.02714 6.93355 11.0671 2.89355 16.0271 2.89355C20.9871 2.89355 25.0271 6.93355 25.0271 11.8936V15.7469C25.0271 16.3602 25.3205 17.4402 25.6405 17.9869L27.1605 20.5202C27.7338 21.4802 27.8405 22.6402 27.4538 23.6936C27.0671 24.7469 26.2271 25.5469 25.1738 25.8936C22.2405 26.8802 19.1338 27.3736 16.0271 27.3736ZM16.0271 4.89355C12.1738 4.89355 9.02714 8.02689 9.02714 11.8936V15.7469C9.02714 16.7202 8.62714 18.1602 8.13381 19.0002L6.60048 21.5469C6.30714 22.0402 6.22714 22.5602 6.40048 23.0002C6.56048 23.4536 6.96048 23.8002 7.50714 23.9869C13.0805 25.8536 18.9871 25.8536 24.5605 23.9869C25.0405 23.8269 25.4138 23.4669 25.5871 22.9869C25.7605 22.5069 25.7205 21.9869 25.4538 21.5469L23.9205 19.0002C23.4138 18.1336 23.0271 16.7069 23.0271 15.7336V11.8936C23.0271 8.02689 19.8938 4.89355 16.0271 4.89355Z" fill="#424242"/>
<path d="M18.5062 5.25324C18.4128 5.25324 18.3195 5.23991 18.2262 5.21324C17.8395 5.10658 17.4662 5.02658 17.1062 4.97324C15.9728 4.82658 14.8795 4.90658 13.8528 5.21324C13.4795 5.33324 13.0795 5.21324 12.8262 4.93324C12.5728 4.65324 12.4928 4.25324 12.6395 3.89324C13.1862 2.49324 14.5195 1.57324 16.0395 1.57324C17.5595 1.57324 18.8928 2.47991 19.4395 3.89324C19.5728 4.25324 19.5062 4.65324 19.2528 4.93324C19.0528 5.14658 18.7728 5.25324 18.5062 5.25324Z" fill="#424242"/>
<path d="M16.0273 30.4136C14.7073 30.4136 13.4273 29.8802 12.494 28.9469C11.5607 28.0136 11.0273 26.7336 11.0273 25.4136H13.0273C13.0273 26.2002 13.3473 26.9736 13.9073 27.5336C14.4673 28.0936 15.2407 28.4136 16.0273 28.4136C17.6807 28.4136 19.0273 27.0669 19.0273 25.4136H21.0273C21.0273 28.1736 18.7873 30.4136 16.0273 30.4136Z" fill="#424242"/>
</svg>
