<svg width="32" height="32" viewBox="0 0 32 32" fill="none" xmlns="http://www.w3.org/2000/svg">
<path d="M21.5866 2.6665H10.4133C5.55996 2.6665 2.66663 5.55984 2.66663 10.4132V21.5732C2.66663 26.4398 5.55996 29.3332 10.4133 29.3332H21.5733C26.4266 29.3332 29.32 26.4398 29.32 21.5865V10.4132C29.3333 5.55984 26.44 2.6665 21.5866 2.6665ZM20.48 19.0665C20.8666 19.4532 20.8666 20.0932 20.48 20.4798C20.28 20.6798 20.0266 20.7732 19.7733 20.7732C19.52 20.7732 19.2666 20.6798 19.0666 20.4798L16 17.4132L12.9333 20.4798C12.7333 20.6798 12.48 20.7732 12.2266 20.7732C11.9733 20.7732 11.72 20.6798 11.52 20.4798C11.1333 20.0932 11.1333 19.4532 11.52 19.0665L14.5866 15.9998L11.52 12.9332C11.1333 12.5465 11.1333 11.9065 11.52 11.5198C11.9066 11.1332 12.5466 11.1332 12.9333 11.5198L16 14.5865L19.0666 11.5198C19.4533 11.1332 20.0933 11.1332 20.48 11.5198C20.8666 11.9065 20.8666 12.5465 20.48 12.9332L17.4133 15.9998L20.48 19.0665Z" fill="#FF0000"/>
</svg>
