<svg width="32" height="32" viewBox="0 0 32 32" fill="none" xmlns="http://www.w3.org/2000/svg">
<path d="M21.5868 2.6665H10.4134C5.56008 2.6665 2.66675 5.55984 2.66675 10.4132V21.5732C2.66675 26.4398 5.56008 29.3332 10.4134 29.3332H21.5734C26.4268 29.3332 29.3201 26.4398 29.3201 21.5865V10.4132C29.3334 5.55984 26.4401 2.6665 21.5868 2.6665ZM22.3734 12.9332L14.8134 20.4932C14.6267 20.6798 14.3734 20.7865 14.1067 20.7865C13.8401 20.7865 13.5867 20.6798 13.4001 20.4932L9.62675 16.7198C9.24008 16.3332 9.24008 15.6932 9.62675 15.3065C10.0134 14.9198 10.6534 14.9198 11.0401 15.3065L14.1067 18.3732L20.9601 11.5198C21.3467 11.1332 21.9867 11.1332 22.3734 11.5198C22.7601 11.9065 22.7601 12.5332 22.3734 12.9332Z" fill="#00B020"/>
</svg>
