<svg width="22" height="22" viewBox="0 0 22 22" fill="none" xmlns="http://www.w3.org/2000/svg">
<g clip-path="url(#clip0_98_2646)">
<path d="M21.7312 20.4358L16.2596 14.9642C17.7507 13.1406 18.4838 10.8136 18.3073 8.46463C18.1308 6.11564 17.0582 3.92435 15.3114 2.34401C13.5646 0.763667 11.2772 -0.0848162 8.92231 -0.025937C6.56743 0.0329421 4.32528 0.994679 2.65961 2.66035C0.993947 4.32601 0.0322097 6.56817 -0.0266695 8.92304C-0.0855486 11.2779 0.762935 13.5653 2.34328 15.3122C3.92362 17.059 6.11491 18.1316 8.4639 18.3081C10.8129 18.4846 13.1398 17.7514 14.9635 16.2604L20.4351 21.732C20.6079 21.8989 20.8395 21.9913 21.0798 21.9892C21.3202 21.9872 21.5501 21.8907 21.7201 21.7208C21.89 21.5508 21.9864 21.3209 21.9885 21.0806C21.9906 20.8402 21.8982 20.6087 21.7312 20.4358ZM9.16647 16.5005C7.71607 16.5005 6.29825 16.0704 5.09228 15.2646C3.88632 14.4588 2.94639 13.3135 2.39135 11.9735C1.83631 10.6336 1.69108 9.15907 1.97404 7.73654C2.257 6.31401 2.95543 5.00734 3.98102 3.98175C5.0066 2.95616 6.31328 2.25773 7.7358 1.97477C9.15833 1.69182 10.6328 1.83704 11.9728 2.39208C13.3128 2.94713 14.4581 3.88706 15.2639 5.09302C16.0697 6.29898 16.4998 7.7168 16.4998 9.1672C16.4976 11.1115 15.7243 12.9754 14.3495 14.3502C12.9747 15.725 11.1107 16.4984 9.16647 16.5005Z" fill="#ADADAD"/>
</g>
<defs>
<clipPath id="clip0_98_2646">
<rect width="22" height="22" fill="white"/>
</clipPath>
</defs>
</svg>
