<svg width="28" height="28" viewBox="0 0 28 28" fill="none" xmlns="http://www.w3.org/2000/svg">
<path d="M23.2983 11.6667H4.63159V21.0001C4.63159 24.5001 5.79826 25.6667 9.29826 25.6667H18.6316C22.1316 25.6667 23.2983 24.5001 23.2983 21.0001V11.6667Z" stroke="#FA7337" stroke-width="1.5" stroke-miterlimit="10" stroke-linecap="round" stroke-linejoin="round"/>
<path d="M25.0833 8.16659V9.33325C25.0833 10.6166 24.465 11.6666 22.75 11.6666H5.24996C3.46496 11.6666 2.91663 10.6166 2.91663 9.33325V8.16659C2.91663 6.88325 3.46496 5.83325 5.24996 5.83325H22.75C24.465 5.83325 25.0833 6.88325 25.0833 8.16659Z" stroke="#FA7337" stroke-width="1.5" stroke-miterlimit="10" stroke-linecap="round" stroke-linejoin="round"/>
<path d="M13.5801 5.83326H7.14007C6.74341 5.4016 6.75507 4.7366 7.17507 4.3166L8.83174 2.65993C9.26341 2.22826 9.97507 2.22826 10.4067 2.65993L13.5801 5.83326Z" stroke="#FA7337" stroke-width="1.5" stroke-miterlimit="10" stroke-linecap="round" stroke-linejoin="round"/>
<path d="M20.8483 5.83326H14.4083L17.5817 2.65993C18.0133 2.22826 18.725 2.22826 19.1567 2.65993L20.8133 4.3166C21.2333 4.7366 21.245 5.4016 20.8483 5.83326Z" stroke="#FA7337" stroke-width="1.5" stroke-miterlimit="10" stroke-linecap="round" stroke-linejoin="round"/>
<path d="M10.4299 11.6667V17.6634C10.4299 18.5967 11.4566 19.1451 12.2383 18.6434L13.3349 17.9201C13.7316 17.6634 14.2333 17.6634 14.6183 17.9201L15.6566 18.6201C16.4266 19.1334 17.4649 18.5851 17.4649 17.6517V11.6667H10.4299Z" stroke="#FA7337" stroke-width="1.5" stroke-miterlimit="10" stroke-linecap="round" stroke-linejoin="round"/>
</svg>
