<svg width="33" height="32" viewBox="0 0 33 32" fill="none" xmlns="http://www.w3.org/2000/svg">
<path d="M22.087 2.6665H10.9137C6.06033 2.6665 3.16699 5.55984 3.16699 10.4132V21.5732C3.16699 26.4398 6.06033 29.3332 10.9137 29.3332H22.0737C26.927 29.3332 29.8203 26.4398 29.8203 21.5865V10.4132C29.8337 5.55984 26.9403 2.6665 22.087 2.6665ZM22.8737 12.9332L15.3137 20.4932C15.127 20.6798 14.8737 20.7865 14.607 20.7865C14.3403 20.7865 14.087 20.6798 13.9003 20.4932L10.127 16.7198C9.74033 16.3332 9.74033 15.6932 10.127 15.3065C10.5137 14.9198 11.1537 14.9198 11.5403 15.3065L14.607 18.3732L21.4603 11.5198C21.847 11.1332 22.487 11.1332 22.8737 11.5198C23.2603 11.9065 23.2603 12.5332 22.8737 12.9332Z" fill="#00B020"/>
</svg>
